<?xml version="1.0" encoding="UTF-8"?>
<svg xmlns="http://www.w3.org/2000/svg" width="557.45" height="164.03" version="1.1" viewBox="0 0 557.45 164.03">
  <!-- Generator: Adobe Illustrator 28.7.0, SVG Export Plug-In . SVG Version: 1.2.0 Build 136)  -->
  <g>
    <g id="Layer_1">
      <g>
        <g>
          <path d="M238.61,50.74l-.09,10.27h-30.54v16.59h27.82v10.27h-27.82v24.31h-11.76v-61.43h42.38Z" fill="#fff"/>
          <path d="M276.96,102.16c9.3,0,15.18-5.79,15.18-15.62v-35.8h11.76v35.8c0,16.15-10.27,26.15-26.94,26.15s-27.29-10-27.29-26.15v-35.8h11.76v35.8c0,9.74,6.23,15.62,15.53,15.62Z" fill="#fff"/>
          <path d="M332.42,50.74l31.68,42.03v-42.03h11.41v61.43h-11.14l-31.59-41.95v41.95h-11.5v-61.43h11.14Z" fill="#fff"/>
          <path d="M405.87,50.74v50.81h26.5v10.62h-38.26v-61.43h11.76Z" fill="#fff"/>
          <path d="M453.43,106.55c0,3.69-2.54,6.41-6.06,6.41s-5.97-2.72-5.97-6.41,2.54-6.23,5.97-6.23,6.06,2.54,6.06,6.23Z" fill="#fff"/>
          <path d="M508.37,99.18h-30.01l-5.44,12.99h-12.2l26.94-61.43h12.2l26.59,61.43h-12.64l-5.44-12.99ZM504.15,89.09l-10.71-25.8-10.88,25.8h21.59Z" fill="#fff"/>
          <path d="M549.17,50.74v61.43h-11.76v-61.43h11.76Z" fill="#fff"/>
        </g>
        <g>
          <rect x="77.35" y="44.01" width=".26" height="29.3" transform="translate(-19.09 47.78) rotate(-30.7)" fill="#f16739"/>
          <polygon points="60.47 111.21 60.25 111.07 76.06 85.48 76.28 85.61 60.47 111.21" fill="#f16739"/>
          <rect x="92.83" y="86.51" width="30.7" height=".26" fill="#f16739"/>
          <path d="M28.87,56.47c-1.18-2.02-1.19-4.34-.02-6.36,1.42-2.48,4.3-4.01,7.52-4.01h33.52l-23.53,40.43-17.49-30.06Z" fill="#fff"/>
          <path d="M69.65,46.22l-23.3,40.04-17.37-29.86c-1.15-1.98-1.16-4.25-.02-6.23,1.4-2.44,4.24-3.95,7.4-3.95h33.29M70.11,45.96h-33.75c-6.32,0-10.43,5.71-7.6,10.57l17.6,30.25,23.75-40.82h0Z" fill="#f16739"/>
          <path d="M100.01,46.09h33.51c3.21,0,6.09,1.54,7.52,4.01,1.16,2.02,1.15,4.34-.02,6.36l-17.49,30.05-23.52-40.43Z" fill="#fff"/>
          <path d="M133.52,46.22c3.17,0,6,1.51,7.4,3.95,1.14,1.98,1.13,4.25-.02,6.23l-17.37,29.86-23.29-40.03h33.29M133.52,45.96h-33.74l23.75,40.82,17.6-30.24c2.83-4.86-1.28-10.57-7.6-10.57h0Z" fill="#f16739"/>
          <path d="M84.81,158.49c-4.8,0-7.11-1.5-7.47-1.76v-16.57s-.11-.17-.13-.2l-16.74-28.77h16.86v-16.17h14.73v16.17h16.86l-16.74,28.77s-.12.2-.12.2v16.58c-.33.25-2.47,1.75-7.26,1.75Z" fill="#fff"/>
          <path d="M91.94,95.15v16.17h16.77l-16.63,28.57s-.04.06-.05.09l-.05.07-.04.06v16.56c-.44.33-2.57,1.69-7.13,1.69s-6.86-1.37-7.34-1.69v-16.54l-.04-.06-.05-.07s-.04-.06-.06-.09l-16.62-28.57h16.77v-16.17h14.47M92.2,94.89h-14.99v16.17h-16.96l16.85,28.96c.03.06.07.11.11.17v16.6s2.27,1.82,7.6,1.82,7.39-1.82,7.39-1.82v-16.61c.03-.06.07-.11.11-.17l16.86-28.97h-16.96v-16.17h0Z" fill="#f16739"/>
          <polygon points="94.12 86.76 84.7 70.58 75.29 86.76 94.12 86.76" fill="#f16739"/>
          <path d="M142.62,79.76s.02.28.05.76c0,.12.02.25.03.4,0,.15,0,.3,0,.47,0,.34,0,.72.02,1.13,0,.41.01.86.02,1.34-.02.47-.03.97-.05,1.49,0,.26-.02.52-.03.79-.01.27,0,.54-.04.81-.05.54-.09,1.09-.14,1.64-.02.27-.04.55-.07.82-.02.27-.07.54-.1.81-.07.54-.14,1.07-.21,1.58-.06.51-.16,1-.25,1.47-.09.47-.17.91-.24,1.31-.04.2-.07.4-.11.58-.04.18-.09.36-.12.52-.08.33-.15.61-.2.85-.11.47-.17.74-.17.74l8.18,2.07s.07-.31.2-.85c.06-.27.14-.6.23-.97.04-.19.09-.39.14-.6.05-.21.08-.44.13-.67.09-.47.18-.97.28-1.51.1-.54.22-1.1.28-1.69.08-.59.16-1.2.24-1.81.04-.31.09-.62.12-.93.03-.31.05-.63.08-.95.05-.63.11-1.26.16-1.88.03-.31.03-.62.05-.93.01-.31.02-.61.03-.9.02-.59.04-1.17.06-1.71,0-.54-.02-1.06-.02-1.53,0-.48-.01-.91-.02-1.3,0-.19,0-.37-.01-.54-.01-.17-.02-.32-.03-.46-.04-.55-.06-.87-.06-.87l-8.42.52Z" fill="#fff"/>
          <path d="M114.71,33.82s.12.07.29.17c.17.11.4.25.62.4.45.29.9.58.9.58l4.6-7.07s-.52-.33-1.04-.66c-.26-.17-.52-.33-.71-.45-.2-.11-.33-.19-.33-.19l-4.33,7.24Z" fill="#fff"/>
          <polygon points="117.59 35.67 119.35 36.91 124.35 30.12 122.34 28.7 117.59 35.67" fill="#fff"/>
          <path d="M120.36,37.69s.42.33.85.66c.21.17.42.33.58.45.15.13.25.22.25.22l5.4-6.48s-.12-.1-.29-.25c-.18-.14-.42-.33-.67-.52-.48-.38-.97-.76-.97-.76l-5.15,6.68Z" fill="#fff"/>
          <path d="M123.01,39.86s.41.35.81.7c.2.18.39.37.54.51.15.14.24.23.24.23l5.77-6.15s-.11-.11-.28-.27c-.17-.16-.39-.37-.62-.58-.47-.4-.93-.8-.93-.8l-5.54,6.36Z" fill="#fff"/>
          <path d="M125.52,42.18s.4.36.76.76c.37.39.74.78.74.78l6.13-5.8s-.43-.44-.85-.89c-.42-.45-.87-.87-.87-.87l-5.91,6.02Z" fill="#fff"/>
          <polygon points="44.65 42.37 46.2 40.88 40.48 34.68 38.7 36.38 44.65 42.37" fill="#fff"/>
          <path d="M47.15,40.03s.41-.35.81-.7c.2-.18.4-.35.56-.48.07-.07.14-.12.19-.15.05-.04.07-.06.07-.06l-9.86-12.04s-.03.03-.09.07c-.06.05-.14.11-.24.2-.19.17-.45.39-.71.61-.52.45-1.03.89-1.03.89l10.3,11.67Z" fill="#fff"/>
          <path d="M49.78,37.85s.42-.33.84-.66c.21-.17.43-.31.6-.43.16-.12.27-.19.27-.19l-4.94-6.84s-.13.09-.31.22c-.19.14-.45.3-.68.5-.48.38-.97.76-.97.76l5.2,6.65Z" fill="#fff"/>
          <path d="M52.53,35.82s.11-.08.27-.19c.08-.06.18-.13.28-.2.11-.07.22-.14.33-.21.45-.29.91-.58.91-.58l-4.53-7.12s-.52.33-1.04.66c-.13.08-.26.17-.38.24-.12.08-.23.16-.32.23-.19.13-.31.22-.31.22l4.79,6.94Z" fill="#fff"/>
          <polygon points="55.4 33.95 57.26 32.89 49.71 19.28 47.34 20.64 55.4 33.95" fill="#fff"/>
          <polygon points="58.38 32.28 60.29 31.31 56.65 23.7 54.46 24.82 58.38 32.28" fill="#fff"/>
          <path d="M61.46,30.79s.49-.22.98-.44c.25-.11.49-.22.67-.3.19-.07.31-.12.31-.12l-5.87-14.42s-.16.06-.4.15c-.24.09-.55.24-.86.37-.62.28-1.25.55-1.25.55l6.4,14.18Z" fill="#fff"/>
          <path d="M69.93,17.1s.55-.12,1.51-.33c.24-.05.51-.11.8-.17.29-.05.61-.1.95-.16.68-.11,1.44-.24,2.27-.38,1.67-.21,3.63-.47,5.74-.57.26-.02.53-.03.8-.05.27-.02.54-.04.81-.04.54,0,1.09-.02,1.65-.03.55,0,1.11-.03,1.67-.01.56.02,1.12.04,1.69.06.56.02,1.13.03,1.69.07.56.05,1.12.09,1.67.14.55.05,1.1.08,1.64.15.54.07,1.07.14,1.59.21.52.07,1.04.14,1.54.21.5.09.99.18,1.46.27.95.18,1.85.33,2.67.54.82.19,1.57.37,2.24.53.66.19,1.23.35,1.71.49.95.27,1.49.43,1.49.43l1.52-4.84s-.58-.17-1.6-.46c-.51-.15-1.13-.33-1.84-.52-.72-.17-1.53-.36-2.41-.57-.88-.23-1.85-.39-2.87-.58-.51-.09-1.04-.19-1.57-.29-.54-.07-1.09-.15-1.66-.23-.56-.08-1.13-.15-1.71-.23-.58-.07-1.17-.11-1.76-.16-.59-.05-1.19-.1-1.79-.15-.6-.04-1.21-.05-1.81-.08-.61-.02-1.21-.04-1.81-.06-.6-.01-1.2.01-1.8.01-.6.01-1.19.02-1.77.03-.29,0-.58.02-.87.04-.29.02-.57.04-.86.06-2.27.11-4.37.39-6.16.62-.89.15-1.71.29-2.44.41-.36.06-.7.12-1.02.17-.31.07-.6.13-.85.19-1.03.23-1.62.36-1.62.36,0,0-.13.03-.36.08-.23.05-.56.12-.95.22-.78.21-1.82.5-2.86.79-.26.08-.52.14-.77.22-.25.08-.5.16-.74.24-.48.16-.93.31-1.31.43-.77.26-1.28.43-1.28.43l1.71,4.77.63,1.77.84,2.36,2,5.58s.7-.23,1.93-.63c.31-.1.64-.23,1.02-.33.38-.1.78-.21,1.22-.33.43-.12.9-.25,1.38-.38.49-.11,1.01-.22,1.55-.34.27-.06.55-.12.83-.18.28-.06.57-.13.86-.18.59-.1,1.2-.2,1.83-.31.31-.05.63-.12.95-.15.32-.04.65-.07.98-.11.33-.04.67-.08,1-.12.17-.02.34-.04.51-.06l.26-.03.26-.02c2.76-.23,5.71-.26,8.66-.1,2.94.18,5.86.64,8.57,1.21.67.16,1.33.32,1.98.47.33.07.64.17.95.26.31.09.62.18.93.27.3.09.6.17.9.26.3.08.58.19.86.29.56.19,1.11.38,1.63.56.26.08.51.19.76.28.25.1.49.19.72.29.47.19.91.36,1.33.53.82.37,1.53.69,2.12.96.3.13.56.25.78.37.22.12.41.21.57.29.31.16.47.24.47.24l3.86-7.5s-.16-.08-.46-.24c-.15-.08-.34-.17-.56-.29-.22-.11-.47-.25-.76-.37-.58-.26-1.28-.58-2.08-.94-.2-.09-.41-.19-.62-.28-.22-.09-.44-.18-.67-.27-.46-.18-.94-.37-1.45-.57-.25-.1-.51-.2-.77-.31-.27-.09-.54-.19-.82-.28-.55-.19-1.13-.39-1.71-.59-.15-.05-.3-.1-.44-.15-.15-.05-.3-.09-.46-.13-.31-.09-.62-.18-.93-.27-.63-.18-1.27-.38-1.92-.54-.66-.16-1.33-.31-2.01-.48-.34-.08-.68-.17-1.03-.24-.35-.06-.7-.13-1.05-.19-.7-.13-1.41-.27-2.12-.39-.71-.1-1.43-.19-2.15-.29-.36-.05-.72-.1-1.08-.14-.36-.03-.72-.06-1.08-.09-.72-.06-1.43-.13-2.14-.18-.71-.02-1.42-.05-2.12-.07-.35-.01-.7-.02-1.04-.04-.34,0-.69.01-1.03.01-.68.01-1.35.02-2,.03-.33,0-.65.03-.97.05-.32.02-.63.04-.94.06-.62.04-1.22.08-1.81.12-.58.07-1.14.13-1.68.2-.54.06-1.06.12-1.55.18-.49.08-.95.16-1.39.23-.43.07-.84.14-1.22.2-.38.07-.72.11-1.03.19-1.24.27-1.94.43-1.94.43l-.42-1.83Z" fill="#f16739"/>
          <path d="M140.17,100.23s0,.03-.03.09c-.02.06-.04.14-.07.23-.07.19-.15.44-.24.7-.17.51-.35,1.02-.35,1.02l7.96,2.8s.2-.58.4-1.16c.1-.29.2-.58.27-.8.04-.11.06-.2.08-.27.02-.06.03-.1.03-.1l-8.06-2.5Z" fill="#fff"/>
          <polygon points="139.06 103.46 138.27 105.46 152.62 111.49 153.62 108.95 139.06 103.46" fill="#fff"/>
          <path d="M137.75,106.62s-.22.49-.44.98c-.11.24-.22.49-.31.67-.09.18-.15.3-.15.3l7.57,3.72s.07-.14.17-.34c.1-.21.22-.49.35-.77.25-.56.51-1.12.51-1.12l-7.7-3.44Z" fill="#fff"/>
          <path d="M136.26,109.71s-.24.48-.49.96c-.27.47-.54.93-.54.93l13.54,7.68s.34-.59.68-1.18c.31-.61.62-1.21.62-1.21l-13.81-7.17Z" fill="#fff"/>
          <path d="M107.47,152.66s.38-.13,1.06-.35c.34-.11.74-.25,1.21-.4.46-.17.98-.37,1.55-.59.57-.22,1.18-.46,1.83-.71.64-.27,1.31-.58,2-.88,1.4-.59,2.83-1.35,4.28-2.08.36-.18.71-.38,1.06-.58.35-.2.7-.4,1.05-.6.69-.4,1.38-.77,2.02-1.19,1.28-.82,2.49-1.56,3.47-2.29.99-.71,1.83-1.28,2.37-1.73.56-.44.88-.69.88-.69l-3.14-3.98s-.3.23-.82.64c-.51.42-1.29.95-2.21,1.61-.91.68-2.03,1.37-3.22,2.13-.59.39-1.23.74-1.87,1.11-.32.18-.65.37-.97.55-.33.19-.65.38-.99.54-1.35.68-2.68,1.39-3.98,1.94-.65.29-1.27.57-1.86.82-.6.23-1.18.45-1.7.66-.53.2-1.01.4-1.44.55-.44.14-.82.27-1.13.37-.63.21-.98.32-.98.32l-.57-1.79s.69-.23,1.89-.62c.3-.09.63-.23.98-.37.36-.14.74-.29,1.15-.45.41-.16.85-.32,1.31-.51.45-.2.93-.41,1.42-.63.5-.22,1.01-.45,1.55-.69.52-.26,1.06-.54,1.62-.82.28-.14.56-.28.84-.43.14-.07.29-.14.43-.22.14-.08.28-.16.42-.24.57-.32,1.15-.65,1.74-.99.6-.32,1.17-.71,1.76-1.08.29-.19.59-.38.89-.57.29-.19.6-.37.89-.58,1.16-.83,2.36-1.63,3.48-2.55,2.31-1.75,4.43-3.73,6.36-5.64.47-.49.93-.98,1.38-1.45.22-.24.45-.47.66-.71.21-.24.41-.48.62-.72.41-.47.8-.93,1.18-1.37.2-.22.37-.45.54-.67.17-.22.34-.44.51-.65.33-.43.66-.84.96-1.23.3-.39.56-.78.82-1.14.26-.36.49-.7.71-1.01.22-.31.43-.59.59-.86.68-1.07,1.07-1.68,1.07-1.68l-7.15-4.47s-.4.62-1.09,1.71c-.37.53-.83,1.17-1.35,1.9-.25.37-.56.74-.87,1.14-.31.4-.64.82-.98,1.25-1.43,1.69-3.12,3.65-5.17,5.52-.25.24-.5.49-.76.72-.27.23-.53.46-.8.69-.27.23-.54.47-.81.7-.14.12-.27.24-.41.35-.14.11-.29.22-.43.33-.57.45-1.15.9-1.72,1.35-.6.42-1.2.85-1.8,1.28l-.45.32c-.15.1-.31.2-.47.3-.31.2-.62.4-.93.59-.31.2-.62.4-.92.59-.31.19-.63.36-.95.54-.31.18-.63.36-.94.54-.31.18-.62.37-.94.52-.63.32-1.26.64-1.88.95-2.5,1.17-4.89,2.17-7,2.83-.53.17-1.03.35-1.51.49-.49.13-.95.26-1.38.38-.43.12-.84.23-1.21.34-.38.1-.73.16-1.05.24-1.26.28-1.98.44-1.98.44l1.13,5.82.48,2.46.36,1.85.97,4.98s.53-.12,1.32-.29c.4-.09.86-.19,1.35-.3.49-.11,1.02-.22,1.54-.37,1.04-.29,2.08-.57,2.86-.79.39-.11.71-.23.93-.3.22-.07.35-.12.35-.12Z" fill="#f16739"/>
          <path d="M142.84,127.88s.21-.27.52-.67c.32-.39.7-.96,1.1-1.51.39-.55.79-1.11,1.08-1.52.15-.21.26-.39.34-.51.08-.12.13-.2.13-.2l-4.23-2.8s-.04.07-.12.18c-.08.12-.18.29-.32.48-.27.39-.64.9-1.01,1.42-.37.51-.72,1.04-1.02,1.41-.29.37-.49.62-.49.62l4.01,3.1Z" fill="#fff"/>
          <path d="M55.69,132.63s-.04-.02-.12-.07c-.08-.05-.2-.11-.34-.2-.29-.19-.72-.46-1.26-.81-.27-.17-.57-.37-.9-.58-.32-.22-.66-.47-1.03-.73-.37-.26-.76-.54-1.17-.83-.4-.3-.82-.64-1.25-.98-3.5-2.7-7.78-6.86-11.19-11.68l-.64-.9-.32-.45c-.11-.15-.2-.31-.3-.46-.39-.62-.79-1.23-1.18-1.85-.37-.62-.72-1.25-1.07-1.87-.09-.15-.18-.31-.26-.46-.09-.15-.18-.31-.25-.46-.16-.31-.31-.62-.47-.93-.16-.31-.31-.61-.47-.92-.08-.15-.15-.3-.23-.45-.07-.15-.14-.31-.2-.46-.27-.61-.54-1.2-.79-1.78-.06-.14-.13-.29-.19-.43-.06-.15-.11-.29-.17-.43-.11-.29-.22-.57-.33-.85-.11-.28-.21-.55-.32-.82-.1-.27-.21-.53-.29-.79-.17-.53-.34-1.03-.5-1.51-.15-.48-.33-.93-.43-1.37-.24-.87-.45-1.62-.62-2.25-.05-.15-.08-.3-.11-.45-.03-.14-.06-.27-.09-.4-.05-.25-.1-.45-.14-.62-.07-.34-.11-.52-.11-.52l-8.25,1.77s.05.21.13.59c.04.19.1.43.16.71.03.14.06.29.1.45.03.16.07.33.12.51.2.71.43,1.58.71,2.57.12.5.32,1.02.49,1.57.18.55.37,1.13.57,1.73.09.3.22.6.33.91.12.31.24.62.36.94.12.32.25.64.38.97.06.16.13.33.19.5.07.17.14.33.22.5.3.66.6,1.35.91,2.04.08.17.16.35.24.53.09.17.17.34.26.52.18.35.35.7.53,1.05.18.35.36.71.54,1.07.09.18.19.36.29.53.1.18.2.35.3.53.41.71.81,1.43,1.23,2.14.45.7.9,1.41,1.35,2.12.12.18.22.36.34.53l.37.52.73,1.03c.25.34.49.69.74,1.03.26.33.52.66.78,1,.26.33.52.66.78.99l.39.49c.14.16.27.32.41.47.54.63,1.09,1.25,1.62,1.87.56.59,1.12,1.18,1.67,1.75.54.59,1.11,1.11,1.66,1.64.28.26.55.52.82.78.14.13.27.26.4.38.14.12.28.24.41.36.55.48,1.09.94,1.6,1.38.13.11.26.22.39.33.13.1.26.21.39.31.26.2.51.4.76.6.5.39.97.77,1.44,1.12.47.33.92.65,1.34.95.42.3.81.58,1.18.83.38.24.72.46,1.03.66.62.4,1.11.71,1.45.93.17.11.3.18.39.23.09.05.13.08.13.08l4.33-7.24Z" fill="#f16739"/>
          <path d="M15.45,104.61s.23.7.64,1.93c.21.61.44,1.37.78,2.2.16.42.34.87.52,1.34.09.24.19.48.28.73.1.25.19.5.31.75.45,1.01.93,2.12,1.47,3.27.29.57.58,1.15.88,1.75.31.59.6,1.21.95,1.81.34.6.69,1.22,1.05,1.84.34.63.74,1.23,1.13,1.85.39.61.79,1.23,1.19,1.85.43.6.85,1.21,1.28,1.81l.64.9c.21.3.45.59.67.88.46.58.91,1.16,1.36,1.73.22.29.46.56.7.84.24.27.47.54.71.82.23.27.47.54.7.8.23.26.45.54.7.78.48.5.95,1,1.41,1.48.23.24.46.48.69.72.23.24.47.45.69.67.46.44.91.86,1.34,1.28.22.21.43.41.64.61.22.19.43.37.64.56.42.36.82.71,1.2,1.04.39.33.74.65,1.1.92.71.56,1.33,1.04,1.84,1.44.26.2.48.38.68.53.2.15.38.27.52.37.28.2.43.31.43.31l2.96-4.12s-.14-.1-.4-.29c-.13-.09-.29-.21-.48-.34-.19-.14-.4-.31-.64-.49-.47-.37-1.05-.82-1.71-1.34-.34-.25-.66-.56-1.02-.86-.36-.31-.73-.63-1.12-.97-.2-.17-.39-.34-.6-.52-.2-.18-.39-.37-.6-.56-.4-.38-.82-.78-1.25-1.19-.21-.21-.44-.41-.65-.63-.21-.22-.42-.44-.64-.67-.43-.45-.87-.91-1.31-1.38-.23-.23-.43-.48-.65-.73-.21-.25-.43-.5-.65-.75-.22-.25-.44-.5-.66-.76-.22-.25-.44-.51-.65-.78-.42-.53-.84-1.07-1.26-1.61-.21-.27-.43-.53-.63-.82l-.6-.84c-.4-.56-.8-1.12-1.19-1.68-.37-.58-.74-1.15-1.1-1.73-.36-.57-.73-1.13-1.05-1.72-.33-.58-.65-1.15-.97-1.71-.33-.55-.6-1.13-.89-1.68-.28-.55-.56-1.1-.82-1.62-.5-1.07-.94-2.1-1.37-3.04-.11-.23-.2-.47-.29-.7-.09-.23-.18-.46-.26-.68-.17-.44-.33-.86-.48-1.25-.32-.78-.53-1.48-.72-2.05-.38-1.14-.59-1.8-.59-1.8l-4.85,1.48Z" fill="#fff"/>
          <path d="M72.43,139.34s-.22-.05-.6-.14c-.19-.05-.42-.1-.69-.16-.27-.06-.57-.13-.89-.23-.65-.19-1.4-.41-2.21-.64-.8-.27-1.65-.56-2.5-.85-.21-.07-.42-.16-.63-.24-.21-.08-.42-.17-.62-.25-.41-.16-.82-.32-1.21-.48-.4-.14-.76-.33-1.11-.49-.35-.16-.69-.31-.99-.45-.31-.14-.59-.26-.84-.38-.24-.13-.46-.24-.63-.33-.35-.18-.55-.28-.55-.28l-3.85,7.5s.23.12.63.32c.2.1.44.23.72.37.28.14.61.28.96.44.35.16.73.33,1.14.52.41.18.82.39,1.28.56.45.18.91.36,1.39.55.24.09.47.19.71.28.24.09.48.19.72.27.98.33,1.95.67,2.87.97.93.27,1.8.52,2.54.73.37.11.72.19,1.02.26.31.07.57.14.79.19.44.1.69.16.69.16l1.87-8.23Z" fill="#fff"/>
          <path d="M53.62,148.98s.82.37,2.05.93c.31.14.64.29,1,.45.36.14.74.3,1.13.45.39.16.8.32,1.21.48.21.08.41.16.62.25.21.08.42.17.63.23.85.29,1.71.58,2.51.86.2.07.4.14.59.2.2.06.39.11.57.17.37.11.73.21,1.05.3.65.19,1.19.34,1.57.45.19.06.34.09.44.11.1.02.16.04.16.04l1.26-4.91s-.05-.01-.15-.03c-.09-.03-.24-.05-.41-.11-.35-.1-.86-.25-1.46-.42-.3-.09-.63-.18-.98-.28-.17-.05-.35-.1-.53-.15-.18-.06-.36-.12-.55-.18-.74-.25-1.54-.53-2.33-.8-.2-.06-.4-.14-.59-.22-.19-.08-.39-.15-.58-.23-.38-.15-.76-.3-1.13-.45-.37-.15-.72-.29-1.05-.42-.33-.15-.64-.29-.93-.42-1.15-.52-1.91-.87-1.91-.87l-2.2,4.57Z" fill="#fff"/>
          <path d="M14.46,65.36s-.17.72-.43,1.8c-.06.27-.13.56-.21.87-.07.31-.12.64-.19.98-.13.68-.26,1.41-.4,2.14-.03.18-.07.36-.1.55-.02.18-.05.36-.07.54-.05.36-.1.72-.14,1.06-.09.69-.18,1.33-.25,1.88-.1,1.11-.16,1.84-.16,1.84l5.05.43s.06-.69.15-1.72c.07-.51.15-1.11.23-1.75.04-.32.09-.65.13-.99.02-.17.05-.34.07-.51.03-.17.06-.34.09-.51.13-.68.25-1.35.37-1.99.06-.32.11-.63.18-.91.07-.29.13-.56.19-.81.24-1.01.4-1.68.4-1.68l-4.92-1.24Z" fill="#f16739"/>
          <path d="M19.91,50.69s-.08.16-.23.45c-.07.14-.17.32-.26.52-.09.2-.2.44-.31.69-.45,1.01-1.1,2.35-1.62,3.73-.27.69-.55,1.37-.8,2.02-.23.66-.44,1.27-.62,1.79-.18.53-.33.96-.43,1.27-.05.15-.09.27-.11.36-.02.08-.04.13-.04.13l4.84,1.5s.01-.04.03-.12c.02-.08.05-.19.1-.33.1-.28.24-.69.4-1.18.17-.49.36-1.06.57-1.67.23-.6.49-1.24.74-1.88.48-1.29,1.08-2.53,1.51-3.47.11-.23.2-.45.29-.64.09-.19.18-.35.24-.49.14-.27.22-.42.22-.42l-4.54-2.26Z" fill="#f16739"/>
          <path d="M24.8,56.49c-.15.33-.3.66-.44.99l-.4,1.01c-.26.67-.54,1.34-.79,2.02-.23.68-.47,1.36-.7,2.04-.11.34-.24.67-.34,1.01-.1.34-.2.68-.29,1.01-.19.67-.39,1.33-.57,1.99-.65,2.63-1.16,5.12-1.45,7.27-.33,2.15-.43,3.96-.55,5.22-.04.63-.04,1.13-.06,1.47-.01.34-.02.52-.02.52l-6.95-.22s-.02.54-.05,1.35c-.01.81.02,1.89.03,2.97,0,.27,0,.54.01.81,0,.27.03.53.04.78.03.5.06.98.09,1.38.05.81.09,1.35.09,1.35l6.92-.61,2.49-.22,5.91-.52s-.05-.74-.13-2.03c-.06-.64-.05-1.43-.07-2.33,0-.23,0-.46-.01-.7,0-.24-.02-.48,0-.74.02-.5.04-1.03.06-1.59,0-.28.02-.56.03-.85,0-.29.05-.58.07-.88.05-.59.1-1.21.15-1.84.02-.32.07-.63.11-.96.04-.32.09-.65.13-.98.04-.33.09-.66.13-1,.04-.34.12-.67.18-1.01.44-2.73,1.21-5.59,2.14-8.38l.35-1.01-5.32-9.15c-.27.6-.54,1.2-.82,1.8Z" fill="#fff"/>
          <path d="M157.52,73.34c-.03-.2-.04-.42-.08-.65-.04-.23-.08-.47-.12-.72-.08-.5-.17-1.03-.26-1.56-.05-.27-.09-.53-.13-.79-.04-.26-.08-.52-.14-.77-.11-.49-.21-.95-.3-1.35-.17-.79-.29-1.32-.29-1.32l-6.76,1.6s-.02-.08-.05-.21c-.03-.13-.07-.33-.13-.56-.13-.46-.29-1.07-.46-1.68-.08-.31-.17-.61-.25-.9-.08-.29-.15-.56-.23-.78-.15-.45-.25-.75-.25-.75l4.71-1.51s-.16-.5-.41-1.25c-.13-.37-.26-.81-.43-1.27-.18-.46-.37-.95-.56-1.44-.19-.49-.38-.98-.56-1.44-.08-.23-.19-.45-.28-.65-.09-.21-.18-.4-.26-.58-.32-.72-.53-1.2-.53-1.2l-4.5,2.05s-.09-.21-.23-.52c-.07-.15-.15-.34-.24-.53-.1-.19-.2-.39-.3-.59-.09-.17-.17-.34-.26-.51-.16.58-.4,1.16-.73,1.73l-4.4,7.56s.02.05.03.08l.24.61c.08.2.14.41.21.62.14.41.27.83.41,1.24.07.2.14.41.2.61.07.2.14.4.19.61.11.41.22.81.33,1.21.11.4.22.79.32,1.17.06.19.1.38.14.57.04.19.08.38.12.56.16.74.32,1.43.46,2.08.11.65.21,1.24.3,1.77.05.26.09.51.13.74.02.11.04.22.06.33.02.11.02.21.04.3.09.76.14,1.2.14,1.2l5.89-.69,2.49-.29,6.9-.81s-.06-.54-.16-1.34Z" fill="#f16739"/>
          <path d="M44.56,36.3l-.03-.04-10.67-14.59.21-.16c.1-.08.24-.18.42-.3l1.58-1.09,2.24-1.54c.65-.42,1.36-.86,2.05-1.29l.59-.37c1.44-.92,2.96-1.76,4.18-2.43.31-.17.6-.33.87-.48l.95-.52c.19-.1.36-.19.52-.27.08-.04.16-.08.23-.11l.69-.35.02.04,8.18,16.12-.58.29c-.06.03-.12.06-.19.09-.13.06-.27.13-.42.22l-.79.43c-.27.15-.56.31-.87.48-1.02.56-2.18,1.2-3.3,1.93-.23.14-.46.29-.69.43-.52.32-1.01.63-1.49.93l-3.16,2.18c-.15.1-.26.18-.34.24l-.18.14ZM33.98,21.69l10.59,14.48.11-.08c.08-.06.19-.15.34-.25l3.16-2.18c.48-.31.97-.61,1.49-.94.23-.14.46-.29.69-.43,1.13-.73,2.29-1.37,3.31-1.93.31-.17.6-.33.87-.48l.79-.43c.15-.09.3-.16.43-.22.07-.03.13-.06.19-.09l.5-.25-8.12-16-.61.3c-.07.04-.15.07-.23.11-.15.08-.33.16-.51.26l-.95.52c-.27.15-.56.31-.87.48-1.22.67-2.74,1.51-4.17,2.43l-.59.37c-.69.42-1.4.86-2.05,1.28l-2.24,1.53-1.58,1.09c-.18.12-.31.22-.41.3l-.14.1Z" fill="#fff"/>
          <path d="M59.91,27.32l-.02-.04-7.47-16.46,3.65-1.58c.29-.12.58-.23.89-.35.15-.06.29-.11.44-.17l2.91-1.1c.45-.18.92-.33,1.37-.48l1.58-.52c.26-.08.51-.17.76-.25.65-.21,1.27-.42,1.83-.58l2.6-.72v.04s4.74,17.45,4.74,17.45l-2.16.59c-.42.13-.89.28-1.38.44-.24.08-.5.16-.75.25l-1.34.44c-.36.12-.74.24-1.1.38l-2.41.91c-.13.05-.27.1-.4.15-.25.09-.48.18-.71.28l-3.02,1.32ZM52.55,10.87l7.41,16.34,2.94-1.28c.23-.09.46-.18.71-.28.13-.05.26-.1.4-.15l2.41-.91c.36-.15.74-.27,1.11-.39l1.34-.44c.26-.08.51-.17.75-.24.5-.16.96-.32,1.39-.44l2.07-.57-4.69-17.32-2.51.69c-.55.16-1.17.37-1.82.58-.25.08-.5.16-.76.25l-1.58.52c-.45.15-.91.3-1.36.48l-2.91,1.1c-.15.06-.29.11-.44.17-.31.12-.61.23-.89.35l-1.18.51-2.38,1.04Z" fill="#fff"/>
          <path d="M145.16,72.14l-.12-.69-.16-.68h.03s21.04-4.62,21.04-4.62l.24,1.07c.03.17.06.35.09.5.01.08.03.16.04.22l.06.36h-.03s-21.2,3.84-21.2,3.84ZM144.96,70.82l.14.62.11.63,21.1-3.82-.05-.3c-.01-.07-.03-.14-.04-.22-.03-.15-.06-.33-.09-.5l-.22-1.01-20.95,4.6Z" fill="#fff"/>
          <path d="M145.47,74.24l-.08-.69c-.03-.33-.1-.65-.1-.66v-.03s.03,0,.03,0l21.28-3.36v.03s.11.53.16,1.06l.14,1.09h-.03s-21.39,2.57-21.39,2.57ZM145.36,72.91c.02.09.07.36.09.63l.08.63,21.29-2.56-.13-1.03c-.05-.45-.13-.9-.15-1.02l-21.18,3.35Z" fill="#fff"/>
          <path d="M139.36,139.8l-.02-.02-11.44-14.01.32-.27c.1-.08.21-.18.35-.29l.21-.18s.09-.08.14-.13c.03-.03.06-.06.09-.08l.51-.47s.1-.09.15-.14c.14-.12.28-.25.41-.4.19-.19.38-.39.58-.59.04-.04.07-.08.11-.11.06-.06.13-.12.18-.19l.28-.32.57-.64c.07-.07.13-.15.18-.22.03-.03.05-.07.08-.1l.25-.32.49-.6.4-.57c.13-.17.24-.33.34-.48.02-.03.04-.05.06-.08.03-.04.06-.08.08-.12l.34-.53.02.02,15.16,9.86v.02s-.54.81-.54.81c-.04.07-.09.13-.14.21-.03.04-.06.08-.08.12l-1.2,1.67-1.19,1.49c-.04.05-.08.1-.12.16-.1.12-.2.25-.31.37l-1.37,1.55c-.1.11-.21.22-.31.33-.06.06-.11.11-.17.17l-.93.95c-.23.24-.46.46-.69.67-.07.07-.14.13-.21.2l-.82.76s-.09.08-.13.12c-.08.08-.16.15-.23.21l-.34.29c-.21.18-.4.34-.56.47l-.51.43ZM127.98,125.78l11.39,13.94.46-.39c.15-.13.34-.29.56-.47l.34-.29c.08-.07.15-.14.23-.21.04-.04.09-.08.13-.12l.82-.76c.07-.06.14-.13.21-.2.23-.21.46-.43.69-.67l.93-.95c.05-.06.11-.11.17-.17.1-.1.21-.21.31-.32l1.37-1.55c.11-.12.21-.24.3-.36.04-.05.08-.1.12-.16l1.19-1.49,1.2-1.67s.06-.08.08-.12c.05-.07.1-.14.14-.2l.51-.79-15.09-9.82-.31.49s-.06.08-.09.12c-.02.03-.04.05-.06.08-.1.14-.22.3-.34.48l-.4.57-.74.92s-.05.07-.08.1c-.06.08-.12.15-.19.22l-.57.64-.28.32c-.06.07-.12.13-.19.19-.04.04-.07.07-.11.11-.2.2-.39.4-.58.59-.13.15-.27.28-.41.4-.05.05-.1.09-.15.14l-.51.47s-.06.06-.09.08c-.05.05-.09.09-.14.13l-.21.18c-.13.11-.25.21-.35.29l-.28.24Z" fill="#fff"/>
          <path d="M9.58,55.7h.03s16.77,6.79,16.77,6.79l-.15.39c-.05.12-.1.26-.16.42l-.1.26c-.02.06-.04.11-.06.18-.01.04-.02.08-.04.12l-.22.66c-.02.06-.04.13-.07.19-.06.17-.12.35-.17.54-.07.26-.15.53-.22.8-.01.05-.03.1-.04.15-.02.08-.05.17-.07.26l-.09.42-.19.83c-.03.09-.04.19-.05.28,0,.04-.01.09-.02.13l-.07.4-.14.76-.08.69c-.03.21-.05.41-.07.58,0,.03,0,.07-.01.1,0,.05-.01.1-.02.14l-.04.63h-.03s-18.04-1.37-18.04-1.37v-.03s.07-.97.07-.97c0-.08.02-.16.03-.25,0-.05.01-.09.02-.14l.25-2.04.33-1.88c.01-.07.02-.13.03-.2.03-.15.05-.31.09-.47l.45-2.02c.03-.15.08-.29.12-.43.02-.08.04-.15.06-.23l.36-1.28c.08-.32.18-.62.28-.92.03-.09.06-.18.09-.27l.35-1.06c.02-.06.04-.12.06-.17.03-.1.07-.2.1-.3l.16-.42c.1-.26.19-.49.26-.68l.24-.62ZM26.3,62.53l-16.69-6.75-.22.56c-.07.19-.16.42-.26.68l-.16.42c-.04.09-.07.19-.1.3-.02.06-.04.11-.06.17l-.35,1.06c-.03.09-.06.18-.09.27-.1.29-.2.6-.28.91l-.36,1.28c-.02.08-.04.15-.06.23-.04.14-.08.29-.11.43l-.45,2.02c-.04.15-.07.31-.09.46-.01.07-.02.13-.03.2l-.32,1.88-.25,2.04s-.01.1-.02.14c-.01.09-.02.17-.03.25l-.07.94,17.95,1.36.04-.57s.01-.1.02-.15c0-.03,0-.06.01-.1.02-.17.05-.37.07-.58l.08-.69.21-1.17s.01-.09.02-.13c.01-.09.03-.19.06-.29l.19-.83.09-.42c.02-.09.05-.18.07-.26.01-.05.03-.1.04-.15.08-.27.15-.54.22-.8.04-.19.11-.37.17-.55.02-.06.04-.13.07-.19l.22-.66s.02-.08.04-.11c.02-.06.04-.12.06-.18l.1-.26c.06-.16.12-.3.16-.42l.13-.34Z" fill="#fff"/>
        </g>
      </g>
    </g>
  </g>
</svg>